G04 Layer_Physical_Order=1*
G04 Layer_Color=255*
%FSLAX24Y24*%
%MOIN*%
G70*
G01*
G75*
%ADD10O,0.0600X0.0850*%
%ADD11R,0.0600X0.0850*%
%ADD12R,0.0591X0.0591*%
%ADD13C,0.0591*%
%ADD14R,0.0728X0.0728*%
%ADD15C,0.0728*%
%ADD16C,0.1400*%
%ADD17C,0.0787*%
%ADD18R,0.0787X0.0787*%
%ADD19R,0.0669X0.0669*%
%ADD20C,0.0669*%
%ADD21C,0.0500*%
%ADD22C,0.0472*%
%ADD23C,0.1181*%
D10*
X23700Y15400D02*
D03*
X24700D02*
D03*
X25700D02*
D03*
X25200Y17400D02*
D03*
X24200D02*
D03*
X23200D02*
D03*
X25800Y26700D02*
D03*
X24800D02*
D03*
X23800D02*
D03*
X25300Y28700D02*
D03*
X24300D02*
D03*
X23300D02*
D03*
D11*
X22700Y15400D02*
D03*
X22800Y26700D02*
D03*
D12*
X38000Y17500D02*
D03*
Y23500D02*
D03*
D13*
X38000Y18500D02*
D03*
Y19500D02*
D03*
Y21500D02*
D03*
Y22500D02*
D03*
D14*
X13000Y23100D02*
D03*
D15*
X13000Y21100D02*
D03*
D16*
X30900Y12200D02*
D03*
Y17500D02*
D03*
X31000Y23400D02*
D03*
Y28700D02*
D03*
D17*
X35900Y14382D02*
D03*
D18*
X35900Y18500D02*
D03*
D19*
X20400Y13600D02*
D03*
Y25000D02*
D03*
D20*
X18400Y13600D02*
D03*
Y25000D02*
D03*
D21*
X14500Y16210D02*
D03*
Y17390D02*
D03*
X17300Y16210D02*
D03*
Y17390D02*
D03*
X20000Y16210D02*
D03*
Y17390D02*
D03*
X28300Y19820D02*
D03*
Y21000D02*
D03*
X31800Y19820D02*
D03*
Y21000D02*
D03*
Y31020D02*
D03*
Y32200D02*
D03*
X28300Y32180D02*
D03*
Y31000D02*
D03*
X20100Y28690D02*
D03*
Y27510D02*
D03*
X17600Y28690D02*
D03*
Y27510D02*
D03*
X15100Y28690D02*
D03*
Y27510D02*
D03*
D22*
X22700Y13600D02*
D03*
X23400D02*
D03*
X24150Y20500D02*
D03*
X23450D02*
D03*
X23500Y24600D02*
D03*
X22800D02*
D03*
X24000Y31400D02*
D03*
X23300D02*
D03*
D23*
X11650Y11650D02*
D03*
Y33850D02*
D03*
X39850Y11650D02*
D03*
X39800Y33950D02*
D03*
M02*
