M48
;Layer_Color=9474304
;FILE_FORMAT=2:4
INCH,LZ
;TYPE=PLATED
T1F00S00C0.0276
T2F00S00C0.0354
T3F00S00C0.0433
T4F00S00C0.0472
T5F00S00C0.0669
;TYPE=NON_PLATED
T6F00S00C0.1181
%
T01
X0227Y0136
X0234
X0318Y01982
Y021
Y03102
X0283Y031
Y021
Y01982
X02415Y0205
X02345
X0235Y0246
X0228
X0201Y02751
Y02869
X0176
Y02751
X0173Y01739
Y01621
X02
Y01739
X0145
Y01621
X0151Y02751
Y02869
X0233Y0314
X024
X0283Y03218
X0318Y0322
T02
X0227Y0154
X0237
X0247
X0257
X038Y0175
Y0185
Y0195
Y0215
Y0225
Y0235
X0258Y0267
X0248
X0238
X0228
X0233Y0287
X0243
X0253
X0252Y0174
X0242
X0232
X013Y0211
Y0231
T03
X0184Y0136
X0204
Y025
X0184
T04
X0359Y014382
Y0185
T05
X0309Y0122
Y0175
X031Y0234
Y0287
T06
X01165Y01165
X03985
X01165Y03385
X0398Y03395
M30
