M48
;Layer_Color=9474304
;FILE_FORMAT=2:4
INCH,LZ
;TYPE=PLATED
T1F00S00C0.0472
T2F00S00C0.0591
;TYPE=NON_PLATED
T3F00S00C0.1220
%
T01
X011142Y01355
Y01491
Y01627
X011122Y018866
Y020226
Y021866
Y023226
T02
X021119Y019801
Y020831
Y021861
Y025111
Y026141
X014Y02575
Y02472
X014Y02122
Y02019
T03
X011467Y011467
X026919
Y026476
X011467Y026486
M30
