G04 Layer_Physical_Order=2*
G04 Layer_Color=16711680*
%FSLAX24Y24*%
%MOIN*%
G70*
G01*
G75*
%ADD10O,0.0335X0.0787*%
%ADD11O,0.1300X0.0750*%
%ADD12R,0.0886X0.0886*%
%ADD13C,0.0886*%
%ADD14C,0.1575*%
%ADD15C,0.0250*%
%ADD16C,0.0150*%
%ADD17C,0.0100*%
G36*
X28132Y10257D02*
X10258D01*
Y27151D01*
Y27696D01*
X28132D01*
Y10257D01*
D02*
G37*
%LPC*%
G36*
X22939Y18001D02*
X22719D01*
Y17825D01*
X22728Y17755D01*
X22755Y17690D01*
X22798Y17634D01*
X22854Y17591D01*
X22919Y17564D01*
X22939Y17562D01*
Y18001D01*
D02*
G37*
G36*
X11192Y16811D02*
Y16320D01*
X11683D01*
X11671Y16411D01*
X11616Y16543D01*
X11529Y16657D01*
X11416Y16744D01*
X11283Y16799D01*
X11192Y16811D01*
D02*
G37*
G36*
X23259Y18001D02*
X23039D01*
Y17562D01*
X23059Y17564D01*
X23124Y17591D01*
X23180Y17634D01*
X23222Y17690D01*
X23249Y17755D01*
X23259Y17825D01*
Y18001D01*
D02*
G37*
G36*
X23039Y18541D02*
Y18101D01*
X23259D01*
Y18278D01*
X23249Y18347D01*
X23222Y18412D01*
X23180Y18468D01*
X23124Y18511D01*
X23059Y18538D01*
X23039Y18541D01*
D02*
G37*
G36*
X22939D02*
X22919Y18538D01*
X22854Y18511D01*
X22798Y18468D01*
X22755Y18412D01*
X22728Y18347D01*
X22719Y18278D01*
Y18101D01*
X22939D01*
Y18541D01*
D02*
G37*
G36*
X11092Y16811D02*
X11000Y16799D01*
X10868Y16744D01*
X10755Y16657D01*
X10668Y16543D01*
X10613Y16411D01*
X10601Y16320D01*
X11092D01*
Y16811D01*
D02*
G37*
G36*
X26919Y12358D02*
X26745Y12341D01*
X26578Y12290D01*
X26424Y12208D01*
X26289Y12097D01*
X26178Y11962D01*
X26095Y11808D01*
X26045Y11640D01*
X26028Y11467D01*
X26045Y11293D01*
X26095Y11125D01*
X26178Y10971D01*
X26289Y10836D01*
X26424Y10725D01*
X26578Y10643D01*
X26745Y10592D01*
X26919Y10575D01*
X27093Y10592D01*
X27261Y10643D01*
X27415Y10725D01*
X27550Y10836D01*
X27661Y10971D01*
X27743Y11125D01*
X27794Y11293D01*
X27811Y11467D01*
X27794Y11640D01*
X27743Y11808D01*
X27661Y11962D01*
X27550Y12097D01*
X27415Y12208D01*
X27261Y12290D01*
X27093Y12341D01*
X26919Y12358D01*
D02*
G37*
G36*
X11467D02*
X11293Y12341D01*
X11125Y12290D01*
X10971Y12208D01*
X10836Y12097D01*
X10725Y11962D01*
X10643Y11808D01*
X10592Y11640D01*
X10575Y11467D01*
X10592Y11293D01*
X10643Y11125D01*
X10725Y10971D01*
X10836Y10836D01*
X10971Y10725D01*
X11125Y10643D01*
X11293Y10592D01*
X11467Y10575D01*
X11640Y10592D01*
X11808Y10643D01*
X11962Y10725D01*
X12097Y10836D01*
X12208Y10971D01*
X12290Y11125D01*
X12341Y11293D01*
X12358Y11467D01*
X12341Y11640D01*
X12290Y11808D01*
X12208Y11962D01*
X12097Y12097D01*
X11962Y12208D01*
X11808Y12290D01*
X11640Y12341D01*
X11467Y12358D01*
D02*
G37*
G36*
X24009Y18547D02*
X23939Y18538D01*
X23874Y18511D01*
X23818Y18468D01*
X23775Y18412D01*
X23748Y18347D01*
X23739Y18278D01*
Y17825D01*
X23748Y17755D01*
X23775Y17690D01*
X23779Y17685D01*
Y16939D01*
X22979Y16138D01*
X15003D01*
X14915Y16120D01*
X14841Y16071D01*
X12549Y13779D01*
X11685D01*
Y14093D01*
X10599D01*
Y13007D01*
X11685D01*
Y13320D01*
X12644D01*
X12732Y13338D01*
X12806Y13387D01*
X15098Y15679D01*
X23074D01*
X23162Y15697D01*
X23236Y15746D01*
X24171Y16681D01*
X24221Y16756D01*
X24238Y16844D01*
Y17685D01*
X24242Y17690D01*
X24269Y17755D01*
X24279Y17825D01*
Y18278D01*
X24269Y18347D01*
X24242Y18412D01*
X24200Y18468D01*
X24144Y18511D01*
X24079Y18538D01*
X24009Y18547D01*
D02*
G37*
G36*
X11683Y16220D02*
X11192D01*
Y15729D01*
X11283Y15741D01*
X11416Y15795D01*
X11529Y15882D01*
X11616Y15996D01*
X11671Y16128D01*
X11683Y16220D01*
D02*
G37*
G36*
X11092D02*
X10601D01*
X10613Y16128D01*
X10668Y15996D01*
X10755Y15882D01*
X10868Y15795D01*
X11000Y15741D01*
X11092Y15729D01*
Y16220D01*
D02*
G37*
G36*
X27305Y24864D02*
X24033D01*
Y19365D01*
X27305D01*
Y24864D01*
D02*
G37*
G36*
X21069Y26091D02*
X20371D01*
X20381Y26017D01*
X20429Y25902D01*
X20505Y25802D01*
X20604Y25726D01*
X20720Y25678D01*
X20844Y25662D01*
X21069D01*
Y26091D01*
D02*
G37*
G36*
X11467Y27378D02*
X11293Y27361D01*
X11125Y27310D01*
X10971Y27228D01*
X10836Y27117D01*
X10725Y26982D01*
X10643Y26827D01*
X10592Y26660D01*
X10575Y26486D01*
X10592Y26312D01*
X10643Y26145D01*
X10725Y25991D01*
X10836Y25856D01*
X10971Y25745D01*
X11125Y25662D01*
X11293Y25612D01*
X11467Y25595D01*
X11640Y25612D01*
X11808Y25662D01*
X11962Y25745D01*
X12097Y25856D01*
X12208Y25991D01*
X12290Y26145D01*
X12341Y26312D01*
X12358Y26486D01*
X12341Y26660D01*
X12290Y26827D01*
X12208Y26982D01*
X12097Y27117D01*
X11962Y27228D01*
X11808Y27310D01*
X11640Y27361D01*
X11467Y27378D01*
D02*
G37*
G36*
X26919Y27368D02*
X26745Y27351D01*
X26578Y27300D01*
X26424Y27218D01*
X26289Y27107D01*
X26178Y26972D01*
X26095Y26818D01*
X26045Y26650D01*
X26028Y26476D01*
X26045Y26302D01*
X26095Y26135D01*
X26178Y25981D01*
X26289Y25846D01*
X26424Y25735D01*
X26578Y25653D01*
X26745Y25602D01*
X26919Y25585D01*
X27093Y25602D01*
X27261Y25653D01*
X27415Y25735D01*
X27550Y25846D01*
X27661Y25981D01*
X27743Y26135D01*
X27794Y26302D01*
X27811Y26476D01*
X27794Y26650D01*
X27743Y26818D01*
X27661Y26972D01*
X27550Y27107D01*
X27415Y27218D01*
X27261Y27300D01*
X27093Y27351D01*
X26919Y27368D01*
D02*
G37*
G36*
X21394Y26620D02*
X21169D01*
Y26191D01*
X21866D01*
X21856Y26265D01*
X21809Y26381D01*
X21732Y26480D01*
X21633Y26556D01*
X21518Y26604D01*
X21394Y26620D01*
D02*
G37*
G36*
X21069D02*
X20844D01*
X20720Y26604D01*
X20604Y26556D01*
X20505Y26480D01*
X20429Y26381D01*
X20381Y26265D01*
X20371Y26191D01*
X21069D01*
Y26620D01*
D02*
G37*
G36*
X21866Y26091D02*
X21169D01*
Y25662D01*
X21394D01*
X21518Y25678D01*
X21633Y25726D01*
X21732Y25802D01*
X21809Y25902D01*
X21856Y26017D01*
X21866Y26091D01*
D02*
G37*
G36*
X14275Y21699D02*
X13725D01*
X13601Y21683D01*
X13485Y21635D01*
X13386Y21559D01*
X13310Y21460D01*
X13306Y21449D01*
X13071D01*
X12984Y21432D01*
X12909Y21382D01*
X11983Y20456D01*
X11615D01*
X11596Y20500D01*
X11509Y20614D01*
X11396Y20701D01*
X11264Y20755D01*
X11122Y20774D01*
X10980Y20755D01*
X10848Y20701D01*
X10735Y20614D01*
X10648Y20500D01*
X10593Y20368D01*
X10574Y20226D01*
X10593Y20085D01*
X10648Y19953D01*
X10735Y19839D01*
X10848Y19752D01*
X10980Y19697D01*
X11122Y19679D01*
X11264Y19697D01*
X11396Y19752D01*
X11509Y19839D01*
X11596Y19953D01*
X11615Y19997D01*
X12078D01*
X12166Y20014D01*
X12240Y20064D01*
X13166Y20991D01*
X13306D01*
X13310Y20980D01*
X13386Y20881D01*
X13485Y20805D01*
X13601Y20757D01*
X13725Y20741D01*
X14275D01*
X14399Y20757D01*
X14514Y20805D01*
X14614Y20881D01*
X14690Y20980D01*
X14738Y21096D01*
X14754Y21220D01*
X14738Y21344D01*
X14690Y21460D01*
X14614Y21559D01*
X14514Y21635D01*
X14399Y21683D01*
X14275Y21699D01*
D02*
G37*
G36*
X21394Y22340D02*
X20844D01*
X20720Y22324D01*
X20604Y22276D01*
X20505Y22200D01*
X20429Y22101D01*
X20381Y21985D01*
X20365Y21861D01*
X20381Y21737D01*
X20429Y21622D01*
X20505Y21522D01*
X20604Y21446D01*
X20720Y21398D01*
X20844Y21382D01*
X21394D01*
X21518Y21398D01*
X21633Y21446D01*
X21732Y21522D01*
X21809Y21622D01*
X21813Y21632D01*
X22306D01*
X22477Y21460D01*
Y19878D01*
X21814Y19216D01*
X20108D01*
X20020Y19198D01*
X19946Y19148D01*
X19677Y18879D01*
X19627Y18805D01*
X19609Y18717D01*
Y18487D01*
X19584Y18472D01*
X19558Y18487D01*
Y19086D01*
X20044Y19572D01*
X20425D01*
X20429Y19562D01*
X20505Y19462D01*
X20604Y19386D01*
X20720Y19338D01*
X20844Y19322D01*
X21394D01*
X21518Y19338D01*
X21633Y19386D01*
X21732Y19462D01*
X21809Y19562D01*
X21856Y19677D01*
X21873Y19801D01*
X21856Y19925D01*
X21809Y20041D01*
X21732Y20140D01*
X21633Y20216D01*
X21518Y20264D01*
X21394Y20280D01*
X20844D01*
X20720Y20264D01*
X20604Y20216D01*
X20505Y20140D01*
X20429Y20041D01*
X20425Y20031D01*
X19949D01*
X19861Y20013D01*
X19787Y19963D01*
X19167Y19343D01*
X19117Y19269D01*
X19099Y19181D01*
Y18487D01*
X19074Y18472D01*
X19048Y18487D01*
Y19856D01*
X19794Y20602D01*
X20425D01*
X20429Y20592D01*
X20505Y20492D01*
X20604Y20416D01*
X20720Y20368D01*
X20844Y20352D01*
X21394D01*
X21518Y20368D01*
X21633Y20416D01*
X21732Y20492D01*
X21809Y20592D01*
X21856Y20707D01*
X21873Y20831D01*
X21856Y20955D01*
X21809Y21071D01*
X21732Y21170D01*
X21633Y21246D01*
X21518Y21294D01*
X21394Y21310D01*
X20844D01*
X20720Y21294D01*
X20604Y21246D01*
X20505Y21170D01*
X20429Y21071D01*
X20425Y21061D01*
X19699D01*
X19612Y21043D01*
X19537Y20993D01*
X18657Y20113D01*
X18607Y20039D01*
X18589Y19951D01*
Y18418D01*
X18585Y18412D01*
X18558Y18347D01*
X18549Y18278D01*
Y17825D01*
X18558Y17755D01*
X18585Y17690D01*
X18628Y17634D01*
X18684Y17591D01*
X18749Y17564D01*
X18819Y17555D01*
X18889Y17564D01*
X18954Y17591D01*
X19010Y17634D01*
X19045Y17681D01*
X19071Y17685D01*
X19077D01*
X19103Y17681D01*
X19138Y17634D01*
X19194Y17591D01*
X19259Y17564D01*
X19329Y17555D01*
X19399Y17564D01*
X19464Y17591D01*
X19520Y17634D01*
X19555Y17681D01*
X19581Y17685D01*
X19587D01*
X19613Y17681D01*
X19648Y17634D01*
X19704Y17591D01*
X19769Y17564D01*
X19839Y17555D01*
X19909Y17564D01*
X19974Y17591D01*
X20030Y17634D01*
X20072Y17690D01*
X20099Y17755D01*
X20109Y17825D01*
Y18278D01*
X20099Y18347D01*
X20072Y18412D01*
X20068Y18418D01*
Y18622D01*
X20203Y18757D01*
X21909D01*
X21997Y18774D01*
X22072Y18824D01*
X22869Y19621D01*
X22919Y19696D01*
X22936Y19783D01*
Y21555D01*
X22919Y21643D01*
X22869Y21717D01*
X22563Y22023D01*
X22488Y22073D01*
X22401Y22091D01*
X21813D01*
X21809Y22101D01*
X21732Y22200D01*
X21633Y22276D01*
X21518Y22324D01*
X21394Y22340D01*
D02*
G37*
G36*
X14275Y20669D02*
X13725D01*
X13601Y20653D01*
X13485Y20605D01*
X13386Y20529D01*
X13310Y20430D01*
X13306Y20419D01*
X13153D01*
X13065Y20402D01*
X12990Y20352D01*
X11734Y19096D01*
X11665D01*
Y19409D01*
X10579D01*
Y18323D01*
X11665D01*
Y18637D01*
X11829D01*
X11917Y18654D01*
X11991Y18704D01*
X13248Y19961D01*
X13306D01*
X13310Y19950D01*
X13386Y19851D01*
X13485Y19775D01*
X13601Y19727D01*
X13725Y19711D01*
X14275D01*
X14399Y19727D01*
X14514Y19775D01*
X14614Y19851D01*
X14690Y19950D01*
X14738Y20066D01*
X14754Y20190D01*
X14738Y20314D01*
X14690Y20430D01*
X14614Y20529D01*
X14514Y20605D01*
X14399Y20653D01*
X14275Y20669D01*
D02*
G37*
G36*
X14275Y26229D02*
X13725D01*
X13601Y26213D01*
X13485Y26165D01*
X13386Y26089D01*
X13310Y25990D01*
X13306Y25979D01*
X12925D01*
X12837Y25962D01*
X12763Y25912D01*
X10960Y24109D01*
X10910Y24035D01*
X10893Y23947D01*
Y23719D01*
X10848Y23701D01*
X10735Y23614D01*
X10648Y23500D01*
X10593Y23368D01*
X10574Y23226D01*
X10593Y23085D01*
X10648Y22953D01*
X10735Y22839D01*
X10848Y22752D01*
X10980Y22697D01*
X11122Y22679D01*
X11264Y22697D01*
X11396Y22752D01*
X11509Y22839D01*
X11596Y22953D01*
X11651Y23085D01*
X11670Y23226D01*
X11651Y23368D01*
X11596Y23500D01*
X11509Y23614D01*
X11396Y23701D01*
X11351Y23719D01*
Y23852D01*
X13020Y25521D01*
X13306D01*
X13310Y25510D01*
X13386Y25411D01*
X13485Y25335D01*
X13601Y25287D01*
X13725Y25271D01*
X14275D01*
X14399Y25287D01*
X14515Y25335D01*
X14614Y25411D01*
X14690Y25510D01*
X14738Y25626D01*
X14754Y25750D01*
X14738Y25874D01*
X14690Y25990D01*
X14614Y26089D01*
X14515Y26165D01*
X14399Y26213D01*
X14275Y26229D01*
D02*
G37*
G36*
X21394Y25590D02*
X20844D01*
X20720Y25574D01*
X20604Y25526D01*
X20505Y25450D01*
X20429Y25351D01*
X20425Y25341D01*
X20279D01*
X20191Y25323D01*
X20116Y25273D01*
X13980Y19137D01*
X13209D01*
X13121Y19119D01*
X13046Y19070D01*
X12388Y18411D01*
X12338Y18337D01*
X12321Y18249D01*
Y15460D01*
X12000Y15139D01*
X11634D01*
X11616Y15183D01*
X11529Y15297D01*
X11416Y15384D01*
X11283Y15439D01*
X11142Y15457D01*
X11000Y15439D01*
X10868Y15384D01*
X10755Y15297D01*
X10668Y15183D01*
X10613Y15051D01*
X10594Y14910D01*
X10613Y14768D01*
X10668Y14636D01*
X10755Y14522D01*
X10868Y14435D01*
X11000Y14381D01*
X11142Y14362D01*
X11283Y14381D01*
X11416Y14435D01*
X11529Y14522D01*
X11616Y14636D01*
X11634Y14680D01*
X12095D01*
X12183Y14698D01*
X12257Y14747D01*
X12712Y15203D01*
X12762Y15277D01*
X12779Y15365D01*
Y18154D01*
X13304Y18678D01*
X14075D01*
X14163Y18696D01*
X14237Y18745D01*
X20374Y24882D01*
X20425D01*
X20429Y24872D01*
X20505Y24772D01*
X20604Y24696D01*
X20720Y24648D01*
X20844Y24632D01*
X21394D01*
X21518Y24648D01*
X21633Y24696D01*
X21732Y24772D01*
X21809Y24872D01*
X21856Y24987D01*
X21873Y25111D01*
X21856Y25235D01*
X21809Y25351D01*
X21732Y25450D01*
X21633Y25526D01*
X21518Y25574D01*
X21394Y25590D01*
D02*
G37*
G36*
X14275Y25199D02*
X13725D01*
X13601Y25183D01*
X13485Y25135D01*
X13386Y25059D01*
X13310Y24960D01*
X13262Y24844D01*
X13246Y24720D01*
X13262Y24596D01*
X13310Y24480D01*
X13386Y24381D01*
X13485Y24305D01*
X13601Y24257D01*
X13725Y24241D01*
X13771D01*
Y24045D01*
X11805Y22079D01*
X11621D01*
X11596Y22140D01*
X11509Y22254D01*
X11396Y22341D01*
X11264Y22395D01*
X11122Y22414D01*
X10980Y22395D01*
X10848Y22341D01*
X10735Y22254D01*
X10648Y22140D01*
X10593Y22008D01*
X10574Y21866D01*
X10593Y21725D01*
X10648Y21593D01*
X10735Y21479D01*
X10848Y21392D01*
X10980Y21337D01*
X11122Y21319D01*
X11264Y21337D01*
X11396Y21392D01*
X11509Y21479D01*
X11596Y21593D01*
X11608Y21621D01*
X11900D01*
X11988Y21638D01*
X12062Y21688D01*
X14162Y23788D01*
X14212Y23862D01*
X14229Y23950D01*
Y24241D01*
X14275D01*
X14399Y24257D01*
X14515Y24305D01*
X14614Y24381D01*
X14690Y24480D01*
X14738Y24596D01*
X14754Y24720D01*
X14738Y24844D01*
X14690Y24960D01*
X14614Y25059D01*
X14515Y25135D01*
X14399Y25183D01*
X14275Y25199D01*
D02*
G37*
%LPD*%
D10*
X18819Y18051D02*
D03*
X19329D02*
D03*
X19839D02*
D03*
X22989D02*
D03*
X24009D02*
D03*
D11*
X14000Y20190D02*
D03*
Y21220D02*
D03*
X14000Y24720D02*
D03*
Y25750D02*
D03*
X21119Y19801D02*
D03*
Y20831D02*
D03*
Y21861D02*
D03*
Y25111D02*
D03*
Y26141D02*
D03*
D12*
X11142Y13550D02*
D03*
X11122Y18866D02*
D03*
D13*
X11142Y14910D02*
D03*
Y16270D02*
D03*
X11122Y20226D02*
D03*
Y21866D02*
D03*
Y23226D02*
D03*
D14*
X11467Y11467D02*
D03*
X26919D02*
D03*
Y26476D02*
D03*
X11467Y26486D02*
D03*
D15*
X12644Y13550D02*
X15003Y15908D01*
X23074D01*
X24009Y16844D01*
Y18051D01*
X22707Y19783D02*
Y21555D01*
X22401Y21861D01*
X21119D01*
Y20831D02*
X19699D01*
X18819Y19951D01*
Y18051D01*
X19329D02*
Y19181D01*
X19949Y19801D01*
X21119D01*
X21909Y18986D02*
X22707Y19783D01*
X21909Y18986D02*
X20108D01*
X19839Y18717D01*
Y18051D01*
X14000Y23950D02*
Y24720D01*
Y23950D02*
X11900Y21850D01*
X11166D01*
X11122Y20226D02*
X12078D01*
X13071Y21220D01*
X14000D01*
Y20190D02*
X13153D01*
X11829Y18866D01*
X11122D01*
X12550Y18249D02*
X13209Y18907D01*
X14075D01*
X20279Y25111D01*
X21119D01*
X21057Y25049D01*
X14000Y25750D02*
X12925D01*
X11122Y23947D01*
Y23226D01*
X12550Y18249D02*
Y15365D01*
X12095Y14910D01*
X11142D01*
Y13550D02*
X12644D01*
D16*
X11122Y21894D02*
X11166Y21850D01*
X11122Y21894D02*
X10850D01*
Y22050D01*
Y23210D02*
X10935Y23295D01*
D17*
X24585Y19665D02*
X24685Y19565D01*
X24785D01*
Y19965D01*
X24885D02*
X24685D01*
X24585Y19865D01*
Y19665D01*
X24985D02*
Y19865D01*
X24885Y19965D01*
X25085Y20165D02*
X24585D01*
Y20465D01*
X24685Y20565D01*
X24885D01*
X24985Y20465D01*
Y20165D01*
Y20765D02*
Y21065D01*
X24885Y21165D01*
X24785Y21065D01*
Y20765D01*
X24685D02*
X24985D01*
X24685D02*
X24585Y20865D01*
Y21065D01*
Y21465D02*
Y21565D01*
X24685Y21665D01*
X24785Y21765D01*
X24985D01*
X24585D01*
X24685Y21965D02*
X24585Y22065D01*
Y22265D01*
X24685Y22365D01*
X24885D01*
X24985Y22265D01*
Y22065D01*
X24885Y21965D01*
X24685D01*
X25185Y20365D02*
Y20265D01*
X25085Y20165D01*
X25645Y20365D02*
X25745D01*
Y20465D01*
Y20265D01*
Y20365D01*
X26045D01*
X26145Y20265D01*
Y20665D02*
X25745D01*
X26145D02*
Y20965D01*
X26045Y21065D01*
X25745D01*
X25845Y21265D02*
X25745Y21365D01*
Y21565D01*
X25845Y21665D01*
X26045D01*
X26145Y21565D01*
Y21365D01*
X26045Y21265D01*
X25845D01*
X25745Y21965D02*
X25945Y22265D01*
X26145Y21965D01*
X27005Y22165D02*
X27105D01*
Y22265D01*
X27005D01*
Y22165D01*
X27105Y22464D02*
Y22864D01*
X26705Y22464D01*
X26605D01*
X26505Y22564D01*
Y22764D01*
X26605Y22864D01*
X26145Y22764D02*
X26045Y22864D01*
X25945Y22764D01*
Y22464D01*
X25845D02*
X26145D01*
Y22764D01*
Y22265D02*
X25545D01*
X25745Y22564D02*
X25845Y22464D01*
X25745Y22564D02*
Y22764D01*
X26145Y23164D02*
Y23364D01*
X26045Y23464D01*
X25845D01*
X25745Y23364D01*
Y23164D01*
X25845Y23064D01*
X25945D01*
Y23464D01*
X25745Y23764D02*
Y23864D01*
X25845Y23964D01*
X25945Y24064D01*
X26145D01*
X25745D01*
Y24264D02*
X25645D01*
X25545Y24364D01*
Y24664D01*
X26145D01*
Y24364D01*
X26045Y24264D01*
X25945D01*
X25845Y24364D01*
Y24664D01*
Y24364D01*
X25745Y24264D01*
X26705Y23964D02*
Y23764D01*
X26805Y23664D01*
X26905D01*
Y24064D01*
X26805D02*
X26705Y23964D01*
Y23464D02*
X27105Y23264D01*
X26705Y23064D01*
X27105Y23764D02*
Y23964D01*
X27005Y24064D01*
X26805D01*
X26705Y24364D02*
Y24464D01*
X26805Y24564D01*
X26905Y24664D01*
X27105D01*
X26705D01*
X24985D02*
X24385D01*
X24585Y24464D01*
X24385Y24264D01*
X24985D01*
Y24064D02*
Y23864D01*
Y23964D01*
X24585D01*
Y24064D01*
Y23564D02*
X24985D01*
X24785D01*
X24685Y23464D01*
X24585Y23364D01*
Y23264D01*
Y22964D02*
X24985D01*
X24785D01*
X24685Y22864D01*
X24585Y22764D01*
Y22664D01*
M02*
